
The Rachel Maddow Show plus NOW With Alex Wagner - mkv
March 28 and 29th  - 2013
Both days are joined into one file - 128 minutes

The Rachel Maddow Show March 28 starts the video
Then the March 29th NOW With Alex Wagner starts at 42:50
Then the March 29th Rachel Maddow Show starts at 1:24:51

Video
Source 				 : SDTV
ID                               : 1
Format                           : AVC
Format/Info                      : Advanced Video Codec
Format profile                   : High@L3.0
Format settings, CABAC           : Yes
Format settings, ReFrames        : 5 frames
Codec ID                         : V_MPEG4/ISO/AVC
Duration                         : 2h 8mn
Bit rate                         : 450 Kbps
Width                            : 640 pixels
Height                           : 416 pixels
Display aspect ratio             : 3:2
Frame rate                       : 29.970 fps
Color space                      : YUV
Chroma subsampling               : 4:2:0
Bit depth                        : 8 bits
Scan type                        : Progressive
Bits/(Pixel*Frame)               : 0.056
Stream size                      : 397 MiB (80%)
Writing library                  : x264 core 120
Language                         : English


Audio
ID                               : 2
Format                           : Vorbis
Format settings, Floor           : 1
Codec ID                         : A_VORBIS
Duration                         : 2h 8mn
Bit rate mode                    : Variable
Bit rate                         : 96.0 Kbps
Channel(s)                       : 2 channels
Sampling rate                    : 48.0 KHz
Compression mode                 : Lossy
Stream size                      : 88.4 MiB (18%)
